<mxfile host="app.diagrams.net" modified="2022-03-08T04:09:46.857Z" agent="5.0 (Macintosh; Intel Mac OS X 10_15_7) AppleWebKit/605.1.15 (KHTML, like Gecko) Version/14.1.2 Safari/605.1.15" etag="Kqp03zxrUIr88YfEEhLW" version="16.6.6" type="github">
  <diagram id="FBnLz8GloL5e5-l2CE9u" name="Page-1">
    <mxGraphModel dx="1351" dy="2090" grid="1" gridSize="10" guides="1" tooltips="1" connect="1" arrows="1" fold="1" page="1" pageScale="1" pageWidth="827" pageHeight="1169" math="0" shadow="0">
      <root>
        <mxCell id="0" />
        <mxCell id="1" parent="0" />
        <mxCell id="y7e9covMwFmBckXpodB2-5" style="edgeStyle=orthogonalEdgeStyle;rounded=0;orthogonalLoop=1;jettySize=auto;html=1;fontSize=20;" edge="1" parent="1" source="y7e9covMwFmBckXpodB2-1" target="y7e9covMwFmBckXpodB2-3">
          <mxGeometry relative="1" as="geometry" />
        </mxCell>
        <mxCell id="y7e9covMwFmBckXpodB2-1" value="&lt;font style=&quot;font-size: 20px&quot;&gt;P1&lt;/font&gt;" style="ellipse;whiteSpace=wrap;html=1;aspect=fixed;" vertex="1" parent="1">
          <mxGeometry x="80" y="240" width="80" height="80" as="geometry" />
        </mxCell>
        <mxCell id="y7e9covMwFmBckXpodB2-2" value="check_needed" style="text;html=1;strokeColor=none;fillColor=none;align=center;verticalAlign=middle;whiteSpace=wrap;rounded=0;fontSize=20;" vertex="1" parent="1">
          <mxGeometry x="45" y="320" width="150" height="30" as="geometry" />
        </mxCell>
        <mxCell id="y7e9covMwFmBckXpodB2-8" style="edgeStyle=orthogonalEdgeStyle;rounded=0;orthogonalLoop=1;jettySize=auto;html=1;entryX=0;entryY=0.5;entryDx=0;entryDy=0;fontSize=20;" edge="1" parent="1" source="y7e9covMwFmBckXpodB2-3" target="y7e9covMwFmBckXpodB2-7">
          <mxGeometry relative="1" as="geometry" />
        </mxCell>
        <mxCell id="y7e9covMwFmBckXpodB2-3" value="" style="line;strokeWidth=10;direction=south;html=1;fontSize=20;" vertex="1" parent="1">
          <mxGeometry x="220" y="200" width="10" height="160" as="geometry" />
        </mxCell>
        <mxCell id="y7e9covMwFmBckXpodB2-6" value="T1" style="text;html=1;strokeColor=none;fillColor=none;align=center;verticalAlign=middle;whiteSpace=wrap;rounded=0;fontSize=20;" vertex="1" parent="1">
          <mxGeometry x="195" y="160" width="60" height="30" as="geometry" />
        </mxCell>
        <mxCell id="y7e9covMwFmBckXpodB2-12" style="rounded=0;orthogonalLoop=1;jettySize=auto;html=1;fontSize=20;" edge="1" parent="1" source="y7e9covMwFmBckXpodB2-7" target="y7e9covMwFmBckXpodB2-10">
          <mxGeometry relative="1" as="geometry" />
        </mxCell>
        <mxCell id="y7e9covMwFmBckXpodB2-22" style="edgeStyle=none;rounded=0;orthogonalLoop=1;jettySize=auto;html=1;fontSize=20;entryX=0.506;entryY=0.8;entryDx=0;entryDy=0;entryPerimeter=0;" edge="1" parent="1" source="y7e9covMwFmBckXpodB2-7" target="y7e9covMwFmBckXpodB2-25">
          <mxGeometry relative="1" as="geometry">
            <mxPoint x="740" y="280" as="targetPoint" />
          </mxGeometry>
        </mxCell>
        <mxCell id="y7e9covMwFmBckXpodB2-7" value="P2" style="ellipse;whiteSpace=wrap;html=1;aspect=fixed;fontSize=20;strokeWidth=1;" vertex="1" parent="1">
          <mxGeometry x="290" y="240" width="80" height="80" as="geometry" />
        </mxCell>
        <mxCell id="y7e9covMwFmBckXpodB2-9" value="wait_doctor" style="text;html=1;strokeColor=none;fillColor=none;align=center;verticalAlign=middle;whiteSpace=wrap;rounded=0;fontSize=20;" vertex="1" parent="1">
          <mxGeometry x="270" y="320" width="120" height="30" as="geometry" />
        </mxCell>
        <mxCell id="y7e9covMwFmBckXpodB2-13" style="edgeStyle=none;rounded=0;orthogonalLoop=1;jettySize=auto;html=1;fontSize=20;" edge="1" parent="1" source="y7e9covMwFmBckXpodB2-10" target="y7e9covMwFmBckXpodB2-14">
          <mxGeometry relative="1" as="geometry">
            <mxPoint x="530" y="175" as="targetPoint" />
          </mxGeometry>
        </mxCell>
        <mxCell id="y7e9covMwFmBckXpodB2-10" value="" style="line;strokeWidth=10;direction=south;html=1;fontSize=20;" vertex="1" parent="1">
          <mxGeometry x="450" y="-10" width="10" height="160" as="geometry" />
        </mxCell>
        <mxCell id="y7e9covMwFmBckXpodB2-11" value="T2" style="text;html=1;strokeColor=none;fillColor=none;align=center;verticalAlign=middle;whiteSpace=wrap;rounded=0;fontSize=20;" vertex="1" parent="1">
          <mxGeometry x="425" y="-40" width="60" height="30" as="geometry" />
        </mxCell>
        <mxCell id="y7e9covMwFmBckXpodB2-16" style="edgeStyle=none;rounded=0;orthogonalLoop=1;jettySize=auto;html=1;fontSize=20;entryX=0.506;entryY=0.5;entryDx=0;entryDy=0;entryPerimeter=0;" edge="1" parent="1" source="y7e9covMwFmBckXpodB2-14" target="y7e9covMwFmBckXpodB2-17">
          <mxGeometry relative="1" as="geometry">
            <mxPoint x="690" y="100" as="targetPoint" />
          </mxGeometry>
        </mxCell>
        <mxCell id="y7e9covMwFmBckXpodB2-27" style="edgeStyle=none;rounded=0;orthogonalLoop=1;jettySize=auto;html=1;fontSize=20;" edge="1" parent="1" source="y7e9covMwFmBckXpodB2-14" target="y7e9covMwFmBckXpodB2-25">
          <mxGeometry relative="1" as="geometry" />
        </mxCell>
        <mxCell id="y7e9covMwFmBckXpodB2-14" value="P3" style="ellipse;whiteSpace=wrap;html=1;aspect=fixed;fontSize=20;strokeWidth=1;" vertex="1" parent="1">
          <mxGeometry x="520" y="30" width="80" height="80" as="geometry" />
        </mxCell>
        <mxCell id="y7e9covMwFmBckXpodB2-15" value="test_allergy" style="text;html=1;strokeColor=none;fillColor=none;align=center;verticalAlign=middle;whiteSpace=wrap;rounded=0;fontSize=20;" vertex="1" parent="1">
          <mxGeometry x="500" y="110" width="120" height="30" as="geometry" />
        </mxCell>
        <mxCell id="y7e9covMwFmBckXpodB2-18" style="edgeStyle=none;rounded=0;orthogonalLoop=1;jettySize=auto;html=1;fontSize=20;" edge="1" parent="1" source="y7e9covMwFmBckXpodB2-17" target="y7e9covMwFmBckXpodB2-19">
          <mxGeometry relative="1" as="geometry">
            <mxPoint x="780" y="110" as="targetPoint" />
          </mxGeometry>
        </mxCell>
        <mxCell id="y7e9covMwFmBckXpodB2-17" value="" style="line;strokeWidth=10;direction=south;html=1;fontSize=20;" vertex="1" parent="1">
          <mxGeometry x="675" y="-10" width="10" height="160" as="geometry" />
        </mxCell>
        <mxCell id="y7e9covMwFmBckXpodB2-19" value="P4" style="ellipse;whiteSpace=wrap;html=1;aspect=fixed;fontSize=20;strokeWidth=1;" vertex="1" parent="1">
          <mxGeometry x="790" y="30" width="80" height="80" as="geometry" />
        </mxCell>
        <mxCell id="y7e9covMwFmBckXpodB2-20" value="not_take_vaccine" style="text;html=1;strokeColor=none;fillColor=none;align=center;verticalAlign=middle;whiteSpace=wrap;rounded=0;fontSize=20;" vertex="1" parent="1">
          <mxGeometry x="745" y="110" width="170" height="30" as="geometry" />
        </mxCell>
        <mxCell id="y7e9covMwFmBckXpodB2-21" value="T3" style="text;html=1;strokeColor=none;fillColor=none;align=center;verticalAlign=middle;whiteSpace=wrap;rounded=0;fontSize=20;" vertex="1" parent="1">
          <mxGeometry x="650" y="-40" width="60" height="30" as="geometry" />
        </mxCell>
        <mxCell id="y7e9covMwFmBckXpodB2-28" style="edgeStyle=none;rounded=0;orthogonalLoop=1;jettySize=auto;html=1;fontSize=20;" edge="1" parent="1" source="y7e9covMwFmBckXpodB2-25" target="y7e9covMwFmBckXpodB2-29">
          <mxGeometry relative="1" as="geometry">
            <mxPoint x="830" y="280" as="targetPoint" />
          </mxGeometry>
        </mxCell>
        <mxCell id="y7e9covMwFmBckXpodB2-25" value="" style="line;strokeWidth=10;direction=south;html=1;fontSize=20;" vertex="1" parent="1">
          <mxGeometry x="450" y="200" width="10" height="160" as="geometry" />
        </mxCell>
        <mxCell id="y7e9covMwFmBckXpodB2-26" value="T4" style="text;html=1;strokeColor=none;fillColor=none;align=center;verticalAlign=middle;whiteSpace=wrap;rounded=0;fontSize=20;" vertex="1" parent="1">
          <mxGeometry x="425" y="175" width="60" height="30" as="geometry" />
        </mxCell>
        <mxCell id="y7e9covMwFmBckXpodB2-31" style="edgeStyle=none;rounded=0;orthogonalLoop=1;jettySize=auto;html=1;fontSize=20;" edge="1" parent="1" source="y7e9covMwFmBckXpodB2-29">
          <mxGeometry relative="1" as="geometry">
            <mxPoint x="680" y="280" as="targetPoint" />
          </mxGeometry>
        </mxCell>
        <mxCell id="y7e9covMwFmBckXpodB2-40" style="edgeStyle=none;rounded=0;orthogonalLoop=1;jettySize=auto;html=1;fontSize=20;entryX=0.556;entryY=0.7;entryDx=0;entryDy=0;entryPerimeter=0;" edge="1" parent="1" source="y7e9covMwFmBckXpodB2-29" target="y7e9covMwFmBckXpodB2-38">
          <mxGeometry relative="1" as="geometry">
            <mxPoint x="670" y="490" as="targetPoint" />
          </mxGeometry>
        </mxCell>
        <mxCell id="y7e9covMwFmBckXpodB2-29" value="P5" style="ellipse;whiteSpace=wrap;html=1;aspect=fixed;fontSize=20;strokeWidth=1;" vertex="1" parent="1">
          <mxGeometry x="520" y="240" width="80" height="80" as="geometry" />
        </mxCell>
        <mxCell id="y7e9covMwFmBckXpodB2-30" value="check_conflicted_drug" style="text;html=1;strokeColor=none;fillColor=none;align=center;verticalAlign=middle;whiteSpace=wrap;rounded=0;fontSize=20;" vertex="1" parent="1">
          <mxGeometry x="470" y="320" width="200" height="30" as="geometry" />
        </mxCell>
        <mxCell id="y7e9covMwFmBckXpodB2-34" style="edgeStyle=none;rounded=0;orthogonalLoop=1;jettySize=auto;html=1;fontSize=20;" edge="1" parent="1" source="y7e9covMwFmBckXpodB2-32" target="y7e9covMwFmBckXpodB2-35">
          <mxGeometry relative="1" as="geometry">
            <mxPoint x="1110" y="280" as="targetPoint" />
          </mxGeometry>
        </mxCell>
        <mxCell id="y7e9covMwFmBckXpodB2-32" value="" style="line;strokeWidth=10;direction=south;html=1;fontSize=20;" vertex="1" parent="1">
          <mxGeometry x="675" y="200" width="10" height="160" as="geometry" />
        </mxCell>
        <mxCell id="y7e9covMwFmBckXpodB2-33" value="T5" style="text;html=1;strokeColor=none;fillColor=none;align=center;verticalAlign=middle;whiteSpace=wrap;rounded=0;fontSize=20;" vertex="1" parent="1">
          <mxGeometry x="650" y="175" width="60" height="30" as="geometry" />
        </mxCell>
        <mxCell id="y7e9covMwFmBckXpodB2-35" value="P6" style="ellipse;whiteSpace=wrap;html=1;aspect=fixed;fontSize=20;strokeWidth=1;" vertex="1" parent="1">
          <mxGeometry x="790" y="240" width="80" height="80" as="geometry" />
        </mxCell>
        <mxCell id="y7e9covMwFmBckXpodB2-36" value="take_vaccine_later" style="text;html=1;strokeColor=none;fillColor=none;align=center;verticalAlign=middle;whiteSpace=wrap;rounded=0;fontSize=20;" vertex="1" parent="1">
          <mxGeometry x="745" y="320" width="173" height="30" as="geometry" />
        </mxCell>
        <mxCell id="y7e9covMwFmBckXpodB2-41" style="edgeStyle=none;rounded=0;orthogonalLoop=1;jettySize=auto;html=1;fontSize=20;" edge="1" parent="1" source="y7e9covMwFmBckXpodB2-38" target="y7e9covMwFmBckXpodB2-42">
          <mxGeometry relative="1" as="geometry">
            <mxPoint x="800" y="490" as="targetPoint" />
          </mxGeometry>
        </mxCell>
        <mxCell id="y7e9covMwFmBckXpodB2-38" value="" style="line;strokeWidth=10;direction=south;html=1;fontSize=20;" vertex="1" parent="1">
          <mxGeometry x="675" y="410" width="10" height="160" as="geometry" />
        </mxCell>
        <mxCell id="y7e9covMwFmBckXpodB2-39" value="T6" style="text;html=1;strokeColor=none;fillColor=none;align=center;verticalAlign=middle;whiteSpace=wrap;rounded=0;fontSize=20;" vertex="1" parent="1">
          <mxGeometry x="650" y="380" width="60" height="30" as="geometry" />
        </mxCell>
        <mxCell id="y7e9covMwFmBckXpodB2-46" style="edgeStyle=none;rounded=0;orthogonalLoop=1;jettySize=auto;html=1;fontSize=20;" edge="1" parent="1" source="y7e9covMwFmBckXpodB2-42" target="y7e9covMwFmBckXpodB2-45">
          <mxGeometry relative="1" as="geometry" />
        </mxCell>
        <mxCell id="y7e9covMwFmBckXpodB2-42" value="P7" style="ellipse;whiteSpace=wrap;html=1;aspect=fixed;fontSize=20;strokeWidth=1;" vertex="1" parent="1">
          <mxGeometry x="790" y="450" width="80" height="80" as="geometry" />
        </mxCell>
        <mxCell id="y7e9covMwFmBckXpodB2-43" value="check_age" style="text;html=1;strokeColor=none;fillColor=none;align=center;verticalAlign=middle;whiteSpace=wrap;rounded=0;fontSize=20;" vertex="1" parent="1">
          <mxGeometry x="781.5" y="540" width="100" height="30" as="geometry" />
        </mxCell>
        <mxCell id="y7e9covMwFmBckXpodB2-48" style="edgeStyle=none;rounded=0;orthogonalLoop=1;jettySize=auto;html=1;fontSize=20;" edge="1" parent="1" source="y7e9covMwFmBckXpodB2-45" target="y7e9covMwFmBckXpodB2-49">
          <mxGeometry relative="1" as="geometry">
            <mxPoint x="1030" y="490" as="targetPoint" />
          </mxGeometry>
        </mxCell>
        <mxCell id="y7e9covMwFmBckXpodB2-45" value="" style="line;strokeWidth=10;direction=south;html=1;fontSize=20;" vertex="1" parent="1">
          <mxGeometry x="940" y="410" width="10" height="160" as="geometry" />
        </mxCell>
        <mxCell id="y7e9covMwFmBckXpodB2-47" value="T7" style="text;html=1;strokeColor=none;fillColor=none;align=center;verticalAlign=middle;whiteSpace=wrap;rounded=0;fontSize=20;" vertex="1" parent="1">
          <mxGeometry x="915" y="380" width="60" height="30" as="geometry" />
        </mxCell>
        <mxCell id="y7e9covMwFmBckXpodB2-52" style="edgeStyle=none;rounded=0;orthogonalLoop=1;jettySize=auto;html=1;fontSize=20;" edge="1" parent="1" source="y7e9covMwFmBckXpodB2-49">
          <mxGeometry relative="1" as="geometry">
            <mxPoint x="1210" y="490" as="targetPoint" />
          </mxGeometry>
        </mxCell>
        <mxCell id="y7e9covMwFmBckXpodB2-49" value="P8" style="ellipse;whiteSpace=wrap;html=1;aspect=fixed;fontSize=20;strokeWidth=1;" vertex="1" parent="1">
          <mxGeometry x="1040" y="450" width="80" height="80" as="geometry" />
        </mxCell>
        <mxCell id="y7e9covMwFmBckXpodB2-50" value="determine_vaccine" style="text;html=1;strokeColor=none;fillColor=none;align=center;verticalAlign=middle;whiteSpace=wrap;rounded=0;fontSize=20;" vertex="1" parent="1">
          <mxGeometry x="990" y="540" width="180" height="30" as="geometry" />
        </mxCell>
        <mxCell id="y7e9covMwFmBckXpodB2-56" style="edgeStyle=none;rounded=0;orthogonalLoop=1;jettySize=auto;html=1;fontSize=20;" edge="1" parent="1" source="y7e9covMwFmBckXpodB2-54" target="y7e9covMwFmBckXpodB2-57">
          <mxGeometry relative="1" as="geometry">
            <mxPoint x="1320" y="490" as="targetPoint" />
          </mxGeometry>
        </mxCell>
        <mxCell id="y7e9covMwFmBckXpodB2-54" value="" style="line;strokeWidth=10;direction=south;html=1;fontSize=20;" vertex="1" parent="1">
          <mxGeometry x="1220" y="410" width="10" height="160" as="geometry" />
        </mxCell>
        <mxCell id="y7e9covMwFmBckXpodB2-55" value="T8" style="text;html=1;strokeColor=none;fillColor=none;align=center;verticalAlign=middle;whiteSpace=wrap;rounded=0;fontSize=20;" vertex="1" parent="1">
          <mxGeometry x="1195" y="380" width="60" height="30" as="geometry" />
        </mxCell>
        <mxCell id="y7e9covMwFmBckXpodB2-57" value="P9" style="ellipse;whiteSpace=wrap;html=1;aspect=fixed;fontSize=20;strokeWidth=1;" vertex="1" parent="1">
          <mxGeometry x="1310" y="450" width="80" height="80" as="geometry" />
        </mxCell>
        <mxCell id="y7e9covMwFmBckXpodB2-58" value="take_vaccine" style="text;html=1;strokeColor=none;fillColor=none;align=center;verticalAlign=middle;whiteSpace=wrap;rounded=0;fontSize=20;" vertex="1" parent="1">
          <mxGeometry x="1290" y="540" width="120" height="30" as="geometry" />
        </mxCell>
        <mxCell id="y7e9covMwFmBckXpodB2-59" value="" style="ellipse;whiteSpace=wrap;html=1;aspect=fixed;fontSize=20;strokeWidth=1;fillColor=#000000;" vertex="1" parent="1">
          <mxGeometry x="105" y="290" width="30" height="30" as="geometry" />
        </mxCell>
      </root>
    </mxGraphModel>
  </diagram>
</mxfile>
